<svg xmlns="http://www.w3.org/2000/svg" width="2200" height="1250" viewBox="0 0 2200 1250">
<rect width="100%" height="100%" fill="white"/>
<text x="230" y="50" font-family="Arial" font-size="38" font-weight="bold">importfix_step1_300_actor_loss</text>
<line x1="230" y1="90.00" x2="2120" y2="90.00" stroke="#e5e7eb" stroke-width="2"/>
<text x="206" y="98.00" text-anchor="end" font-family="Arial" font-size="25" fill="#374151">0.024449</text>
<line x1="230" y1="256.00" x2="2120" y2="256.00" stroke="#e5e7eb" stroke-width="2"/>
<text x="206" y="264.00" text-anchor="end" font-family="Arial" font-size="25" fill="#374151">0.014546</text>
<line x1="230" y1="422.00" x2="2120" y2="422.00" stroke="#e5e7eb" stroke-width="2"/>
<text x="206" y="430.00" text-anchor="end" font-family="Arial" font-size="25" fill="#374151">0.0046431</text>
<line x1="230" y1="588.00" x2="2120" y2="588.00" stroke="#e5e7eb" stroke-width="2"/>
<text x="206" y="596.00" text-anchor="end" font-family="Arial" font-size="25" fill="#374151">-0.0052599</text>
<line x1="230" y1="754.00" x2="2120" y2="754.00" stroke="#e5e7eb" stroke-width="2"/>
<text x="206" y="762.00" text-anchor="end" font-family="Arial" font-size="25" fill="#374151">-0.015163</text>
<line x1="230" y1="920.00" x2="2120" y2="920.00" stroke="#e5e7eb" stroke-width="2"/>
<text x="206" y="928.00" text-anchor="end" font-family="Arial" font-size="25" fill="#374151">-0.025066</text>
<text x="223.68" y="965" text-anchor="middle" font-family="Arial" font-size="26" fill="#374151">0</text>
<text x="539.73" y="965" text-anchor="middle" font-family="Arial" font-size="26" fill="#374151">50</text>
<text x="855.79" y="965" text-anchor="middle" font-family="Arial" font-size="26" fill="#374151">100</text>
<text x="1171.84" y="965" text-anchor="middle" font-family="Arial" font-size="26" fill="#374151">150</text>
<text x="1487.89" y="965" text-anchor="middle" font-family="Arial" font-size="26" fill="#374151">200</text>
<text x="1803.95" y="965" text-anchor="middle" font-family="Arial" font-size="26" fill="#374151">250</text>
<text x="2120.00" y="965" text-anchor="middle" font-family="Arial" font-size="26" fill="#374151">300</text>
<line x1="230" y1="90" x2="230" y2="920" stroke="#111827" stroke-width="3"/>
<line x1="230" y1="920" x2="2120" y2="920" stroke="#111827" stroke-width="3"/>
<text x="1175.0" y="1025" text-anchor="middle" font-family="Arial" font-size="32" font-weight="bold">Training Step</text>
<text x="42" y="505.0" text-anchor="middle" transform="rotate(-90 42 505.0)" font-family="Arial" font-size="32" font-weight="bold">Metric Value</text>
<line x1="230" y1="1075" x2="2120" y2="1075" stroke="#d1d5db" stroke-width="2"/>
<polyline points="230.00,415.11 236.32,398.41 242.64,596.39 248.96,529.38 255.28,462.20 261.61,414.37 267.93,275.49 274.25,375.02 280.57,426.51 286.89,330.67 293.21,457.82 299.53,394.78 305.85,195.09 312.17,476.20 318.49,599.33 324.82,428.08 331.14,450.78 337.46,382.90 343.78,556.17 350.10,469.32 356.42,555.63 362.74,433.82 369.06,570.28 375.38,207.73 381.71,672.61 388.03,230.07 394.35,416.02 400.67,510.61 406.99,609.63 413.31,458.34 419.63,485.72 425.95,499.84 432.27,663.82 438.60,651.57 444.92,457.23 451.24,418.63 457.56,413.61 463.88,426.55 470.20,471.72 476.52,445.91 482.84,504.73 489.16,410.91 495.48,583.00 501.81,690.60 508.13,371.49 514.45,382.36 520.77,433.57 527.09,478.60 533.41,386.65 539.73,396.98 546.05,340.94 552.37,384.71 558.70,550.97 565.02,423.86 571.34,481.49 577.66,482.72 583.98,462.45 590.30,382.37 596.62,349.66 602.94,540.14 609.26,569.16 615.59,418.15 621.91,554.48 628.23,585.67 634.55,471.33 640.87,434.59 647.19,271.53 653.51,368.88 659.83,520.84 666.15,562.79 672.47,549.48 678.80,497.62 685.12,556.48 691.44,318.83 697.76,424.90 704.08,465.92 710.40,481.62 716.72,529.43 723.04,512.99 729.36,499.64 735.69,490.62 742.01,415.34 748.33,383.30 754.65,426.19 760.97,563.49 767.29,435.71 773.61,382.89 779.93,472.93 786.25,488.95 792.58,593.98 798.90,665.18 805.22,660.99 811.54,393.88 817.86,282.70 824.18,471.62 830.50,392.46 836.82,457.54 843.14,605.90 849.46,236.59 855.79,488.94 862.11,432.40 868.43,465.87 874.75,469.33 881.07,674.06 887.39,255.21 893.71,343.20 900.03,532.18 906.35,723.50 912.68,309.65 919.00,609.86 925.32,578.71 931.64,471.34 937.96,476.00 944.28,463.65 950.60,424.87 956.92,479.86 963.24,417.07 969.57,576.82 975.89,508.80 982.21,607.89 988.53,535.33 994.85,170.71 1001.17,285.25 1007.49,324.25 1013.81,440.16 1020.13,253.30 1026.45,475.65 1032.78,480.48 1039.10,633.05 1045.42,490.25 1051.74,601.21 1058.06,814.71 1064.38,585.44 1070.70,546.23 1077.02,289.94 1083.34,459.09 1089.67,134.46 1095.99,410.28 1102.31,528.43 1108.63,658.29 1114.95,470.29 1121.27,330.53 1127.59,450.86 1133.91,649.55 1140.23,253.72 1146.56,618.23 1152.88,422.74 1159.20,386.57 1165.52,523.81 1171.84,403.35 1178.16,647.48 1184.48,381.20 1190.80,555.80 1197.12,519.70 1203.44,483.38 1209.77,475.86 1216.09,380.41 1222.41,642.20 1228.73,381.96 1235.05,472.42 1241.37,543.84 1247.69,407.28 1254.01,452.27 1260.33,522.07 1266.66,410.92 1272.98,412.27 1279.30,302.38 1285.62,517.33 1291.94,351.66 1298.26,445.57 1304.58,561.23 1310.90,407.21 1317.22,548.25 1323.55,694.67 1329.87,562.74 1336.19,404.40 1342.51,394.80 1348.83,419.05 1355.15,344.30 1361.47,367.31 1367.79,575.99 1374.11,298.55 1380.43,471.66 1386.76,388.91 1393.08,375.92 1399.40,477.05 1405.72,249.89 1412.04,426.92 1418.36,415.25 1424.68,566.46 1431.00,505.74 1437.32,460.81 1443.65,530.79 1449.97,519.86 1456.29,594.45 1462.61,423.54 1468.93,177.56 1475.25,599.14 1481.57,406.96 1487.89,351.08 1494.21,532.10 1500.54,417.05 1506.86,399.44 1513.18,284.65 1519.50,547.95 1525.82,510.67 1532.14,440.82 1538.46,680.36 1544.78,664.55 1551.10,630.26 1557.42,671.39 1563.75,470.12 1570.07,475.45 1576.39,582.25 1582.71,423.92 1589.03,575.27 1595.35,394.84 1601.67,512.35 1607.99,363.48 1614.31,657.05 1620.64,362.24 1626.96,466.89 1633.28,398.48 1639.60,467.26 1645.92,461.06 1652.24,470.56 1658.56,604.48 1664.88,473.05 1671.20,350.13 1677.53,392.52 1683.85,548.17 1690.17,716.10 1696.49,629.49 1702.81,526.68 1709.13,348.35 1715.45,436.78 1721.77,402.70 1728.09,408.16 1734.41,307.78 1740.74,318.07 1747.06,382.82 1753.38,475.85 1759.70,573.54 1766.02,548.12 1772.34,495.24 1778.66,528.63 1784.98,622.98 1791.30,445.61 1797.63,590.05 1803.95,480.52 1810.27,486.08 1816.59,506.45 1822.91,480.22 1829.23,366.82 1835.55,693.74 1841.87,449.97 1848.19,429.18 1854.52,608.98 1860.84,321.16 1867.16,327.27 1873.48,260.20 1879.80,398.42 1886.12,630.35 1892.44,487.43 1898.76,434.15 1905.08,788.27 1911.40,498.24 1917.73,381.64 1924.05,241.25 1930.37,581.21 1936.69,305.75 1943.01,463.85 1949.33,875.54 1955.65,527.84 1961.97,386.22 1968.29,604.75 1974.62,332.94 1980.94,369.45 1987.26,423.89 1993.58,300.83 1999.90,573.60 2006.22,445.30 2012.54,638.53 2018.86,449.26 2025.18,235.64 2031.51,535.55 2037.83,687.00 2044.15,494.36 2050.47,468.97 2056.79,560.27 2063.11,501.55 2069.43,417.81 2075.75,659.17 2082.07,619.84 2088.39,344.15 2094.72,676.12 2101.04,515.30 2107.36,412.19 2113.68,334.18 2120.00,563.74" fill="none" stroke="#2563eb" stroke-width="4"/>
<line x1="230" y1="1125" x2="266" y2="1125" stroke="#2563eb" stroke-width="6"/>
<text x="282" y="1134" font-family="Arial" font-size="25">actor/pg_loss</text>
<polyline points="230.00,510.64 236.32,516.59 242.64,501.19 248.96,499.68 255.28,509.73 261.61,514.81 267.93,510.50 274.25,517.10 280.57,509.01 286.89,519.79 293.21,504.65 299.53,508.44 305.85,527.53 312.17,511.23 318.49,502.62 324.82,506.76 331.14,508.19 337.46,513.91 343.78,495.75 350.10,500.14 356.42,506.41 362.74,509.02 369.06,499.39 375.38,516.09 381.71,498.53 388.03,527.78 394.35,512.98 400.67,501.06 406.99,500.45 413.31,512.31 419.63,493.94 425.95,515.28 432.27,493.38 438.60,495.53 444.92,506.59 451.24,513.10 457.56,503.42 463.88,511.38 470.20,506.76 476.52,509.62 482.84,510.64 489.16,509.42 495.48,505.32 501.81,497.04 508.13,512.72 514.45,506.51 520.77,505.67 527.09,509.68 533.41,518.22 539.73,513.21 546.05,521.23 552.37,515.13 558.70,503.46 565.02,509.73 571.34,502.87 577.66,509.23 583.98,509.73 590.30,516.63 596.62,515.18 602.94,505.81 609.26,498.78 615.59,509.08 621.91,502.82 628.23,500.37 634.55,510.02 640.87,500.08 647.19,524.33 653.51,510.88 659.83,506.10 666.15,503.28 672.47,507.73 678.80,501.14 685.12,503.74 691.44,518.86 697.76,509.55 704.08,521.62 710.40,509.45 716.72,505.30 723.04,507.22 729.36,507.89 735.69,526.22 742.01,505.65 748.33,513.50 754.65,509.20 760.97,501.48 767.29,520.19 773.61,522.93 779.93,505.16 786.25,507.55 792.58,497.40 798.90,508.34 805.22,501.76 811.54,504.46 817.86,508.50 824.18,513.77 830.50,514.30 836.82,513.30 843.14,511.52 849.46,522.59 855.79,502.78 862.11,517.93 868.43,507.57 874.75,510.69 881.07,494.08 887.39,525.47 893.71,518.27 900.03,498.56 906.35,477.98 912.68,519.31 919.00,492.70 925.32,502.49 931.64,505.10 937.96,506.42 944.28,511.28 950.60,512.67 956.92,513.22 963.24,513.34 969.57,506.57 975.89,499.27 982.21,491.04 988.53,494.69 994.85,532.81 1001.17,519.31 1007.49,504.06 1013.81,509.58 1020.13,527.14 1026.45,506.91 1032.78,511.98 1039.10,495.48 1045.42,505.25 1051.74,490.88 1058.06,479.29 1064.38,508.90 1070.70,506.32 1077.02,524.09 1083.34,510.50 1089.67,532.20 1095.99,515.89 1102.31,507.72 1108.63,487.65 1114.95,513.23 1121.27,513.14 1127.59,515.17 1133.91,504.94 1140.23,517.75 1146.56,501.56 1152.88,513.72 1159.20,506.01 1165.52,507.56 1171.84,509.46 1178.16,489.30 1184.48,514.80 1190.80,502.28 1197.12,510.12 1203.44,503.68 1209.77,505.22 1216.09,513.37 1222.41,503.98 1228.73,516.57 1235.05,510.34 1241.37,503.79 1247.69,514.61 1254.01,514.71 1260.33,504.26 1266.66,515.34 1272.98,521.91 1279.30,509.07 1285.62,512.24 1291.94,512.64 1298.26,506.76 1304.58,502.23 1310.90,510.00 1317.22,510.15 1323.55,492.21 1329.87,499.89 1336.19,513.38 1342.51,510.20 1348.83,514.66 1355.15,510.26 1361.47,510.34 1367.79,490.98 1374.11,528.65 1380.43,505.48 1386.76,510.53 1393.08,518.78 1399.40,517.52 1405.72,527.23 1412.04,512.76 1418.36,506.36 1424.68,497.25 1431.00,500.97 1437.32,510.59 1443.65,507.39 1449.97,497.84 1456.29,501.85 1462.61,526.93 1468.93,512.47 1475.25,500.93 1481.57,513.15 1487.89,513.28 1494.21,500.82 1500.54,514.97 1506.86,513.34 1513.18,514.22 1519.50,505.64 1525.82,504.72 1532.14,507.16 1538.46,484.45 1544.78,503.66 1551.10,489.52 1557.42,494.76 1563.75,508.16 1570.07,519.89 1576.39,497.02 1582.71,514.03 1589.03,516.79 1595.35,507.31 1601.67,504.70 1607.99,514.81 1614.31,500.83 1620.64,525.78 1626.96,507.79 1633.28,503.65 1639.60,522.64 1645.92,509.22 1652.24,500.80 1658.56,492.68 1664.88,512.68 1671.20,510.24 1677.53,510.82 1683.85,508.88 1690.17,502.66 1696.49,506.32 1702.81,503.02 1709.13,512.29 1715.45,506.39 1721.77,513.17 1728.09,517.74 1734.41,505.23 1740.74,514.11 1747.06,513.16 1753.38,503.34 1759.70,497.83 1766.02,499.86 1772.34,507.06 1778.66,501.19 1784.98,499.82 1791.30,496.07 1797.63,501.15 1803.95,515.32 1810.27,502.61 1816.59,512.67 1822.91,504.34 1829.23,519.89 1835.55,498.22 1841.87,505.63 1848.19,510.10 1854.52,502.16 1860.84,515.76 1867.16,506.66 1873.48,517.62 1879.80,516.54 1886.12,516.77 1892.44,506.82 1898.76,505.17 1905.08,488.15 1911.40,504.83 1917.73,515.21 1924.05,524.97 1930.37,492.60 1936.69,521.50 1943.01,510.50 1949.33,493.20 1955.65,505.08 1961.97,513.95 1968.29,506.59 1974.62,514.08 1980.94,519.45 1987.26,514.44 1993.58,528.32 1999.90,502.66 2006.22,511.42 2012.54,490.98 2018.86,515.39 2025.18,522.64 2031.51,499.06 2037.83,498.63 2044.15,510.54 2050.47,510.95 2056.79,504.57 2063.11,511.45 2069.43,504.08 2075.75,491.04 2082.07,506.24 2088.39,519.46 2094.72,497.45 2101.04,508.04 2107.36,511.66 2113.68,514.62 2120.00,505.28" fill="none" stroke="#dc2626" stroke-width="4"/>
<line x1="880" y1="1125" x2="916" y2="1125" stroke="#dc2626" stroke-width="6"/>
<text x="932" y="1134" font-family="Arial" font-size="25">actor/trace_loss</text>
<polyline points="230.00,425.93 236.32,415.17 242.64,597.75 248.96,529.23 255.28,472.10 261.61,429.35 267.93,286.16 274.25,392.29 280.57,435.70 286.89,350.63 293.21,462.63 299.53,403.39 305.85,222.79 312.17,487.60 318.49,602.12 324.82,435.01 331.14,459.14 337.46,396.98 343.78,552.09 350.10,469.63 356.42,562.21 362.74,443.01 369.06,569.85 375.38,223.99 381.71,671.30 388.03,258.02 394.35,429.17 400.67,511.84 406.99,610.24 413.31,470.81 419.63,479.83 425.95,515.29 432.27,657.37 438.60,647.28 444.92,463.98 451.24,431.90 457.56,417.20 463.88,438.10 470.20,478.65 476.52,455.70 482.84,515.54 489.16,420.50 495.48,588.49 501.81,687.81 508.13,384.38 514.45,389.03 520.77,439.41 527.09,488.45 533.41,405.05 539.73,410.36 546.05,362.34 552.37,400.00 558.70,554.60 565.02,433.76 571.34,484.54 577.66,492.12 583.98,472.35 590.30,399.17 596.62,365.01 602.94,546.12 609.26,568.11 615.59,427.39 621.91,557.46 628.23,586.21 634.55,481.51 640.87,434.83 647.19,296.02 653.51,379.93 659.83,527.11 666.15,566.23 672.47,557.39 678.80,498.92 685.12,560.39 691.44,337.86 697.76,434.63 704.08,487.70 710.40,491.23 716.72,534.90 723.04,520.38 729.36,507.69 735.69,517.00 742.01,421.15 748.33,396.97 754.65,435.56 760.97,565.13 767.29,456.07 773.61,406.00 779.93,478.26 786.25,496.67 792.58,591.55 798.90,673.69 805.22,662.92 811.54,398.51 817.86,291.37 824.18,485.57 830.50,406.93 836.82,471.01 843.14,617.59 849.46,259.35 855.79,491.89 862.11,450.49 868.43,473.61 874.75,480.18 881.07,668.30 887.39,280.85 893.71,361.63 900.03,530.91 906.35,701.65 912.68,329.13 919.00,602.73 925.32,581.36 931.64,476.61 937.96,482.59 944.28,475.10 950.60,437.71 956.92,493.25 963.24,430.58 969.57,583.56 975.89,508.24 982.21,599.11 988.53,530.18 994.85,203.70 1001.17,304.73 1007.49,328.48 1013.81,449.91 1020.13,280.61 1026.45,482.72 1032.78,492.63 1039.10,628.70 1045.42,495.67 1051.74,592.26 1058.06,794.17 1064.38,594.51 1070.70,552.72 1077.02,314.20 1083.34,469.76 1089.67,166.83 1095.99,426.34 1102.31,536.32 1108.63,646.11 1114.95,483.68 1121.27,343.84 1127.59,466.20 1133.91,654.65 1140.23,271.65 1146.56,619.96 1152.88,436.62 1159.20,392.75 1165.52,531.55 1171.84,412.97 1178.16,636.95 1184.48,396.17 1190.80,558.25 1197.12,529.99 1203.44,487.23 1209.77,481.25 1216.09,393.94 1222.41,646.35 1228.73,398.70 1235.05,482.93 1241.37,547.80 1247.69,422.06 1254.01,467.15 1260.33,526.49 1266.66,426.43 1272.98,434.34 1279.30,311.62 1285.62,529.74 1291.94,364.47 1298.26,452.51 1304.58,563.62 1310.90,417.38 1317.22,558.56 1323.55,687.04 1329.87,562.80 1336.19,417.96 1342.51,405.18 1348.83,433.88 1355.15,354.73 1361.47,377.82 1367.79,567.14 1374.11,327.37 1380.43,477.31 1386.76,399.61 1393.08,394.87 1399.40,494.73 1405.72,277.29 1412.04,439.84 1418.36,421.78 1424.68,563.89 1431.00,506.88 1437.32,471.57 1443.65,538.35 1449.97,517.87 1456.29,596.47 1462.61,450.63 1468.93,190.21 1475.25,600.23 1481.57,420.28 1487.89,364.53 1494.21,533.09 1500.54,432.19 1506.86,412.95 1513.18,299.04 1519.50,553.76 1525.82,515.56 1532.14,448.15 1538.46,664.98 1544.78,668.38 1551.10,619.94 1557.42,666.32 1563.75,478.45 1570.07,495.51 1576.39,579.43 1582.71,438.12 1589.03,592.23 1595.35,402.32 1601.67,517.22 1607.99,378.46 1614.31,658.05 1620.64,388.18 1626.96,474.85 1633.28,402.30 1639.60,490.06 1645.92,470.46 1652.24,471.53 1658.56,597.33 1664.88,485.90 1671.20,360.54 1677.53,403.50 1683.85,557.22 1690.17,718.93 1696.49,635.98 1702.81,529.87 1709.13,360.81 1715.45,443.34 1721.77,416.03 1728.09,426.07 1734.41,313.18 1740.74,332.35 1747.06,396.14 1753.38,479.36 1759.70,571.54 1766.02,548.15 1772.34,502.47 1778.66,529.99 1784.98,622.97 1791.30,441.85 1797.63,591.37 1803.95,496.01 1810.27,488.86 1816.59,519.29 1822.91,484.74 1829.23,386.88 1835.55,692.14 1841.87,455.77 1848.19,439.45 1854.52,611.31 1860.84,337.09 1867.16,334.10 1873.48,277.99 1879.80,415.13 1886.12,647.30 1892.44,494.42 1898.76,439.48 1905.08,776.59 1911.40,503.25 1917.73,397.02 1924.05,266.39 1930.37,573.98 1936.69,327.42 1943.01,474.52 1949.33,868.91 1955.65,533.09 1961.97,400.34 1968.29,611.51 1974.62,347.19 1980.94,389.06 1987.26,438.50 1993.58,329.32 1999.90,576.42 2006.22,456.89 2012.54,629.68 2018.86,464.82 2025.18,258.45 2031.51,534.78 2037.83,685.80 2044.15,505.07 2050.47,480.09 2056.79,565.01 2063.11,513.18 2069.43,422.06 2075.75,650.37 2082.07,626.25 2088.39,363.78 2094.72,673.74 2101.04,523.51 2107.36,424.02 2113.68,348.97 2120.00,569.19" fill="none" stroke="#059669" stroke-width="4"/>
<line x1="1530" y1="1125" x2="1566" y2="1125" stroke="#059669" stroke-width="6"/>
<text x="1582" y="1134" font-family="Arial" font-size="25">actor/total_loss</text>
</svg>