<svg xmlns="http://www.w3.org/2000/svg" viewBox="0 0 960 330"><rect width="100%" height="100%" fill="#fff"/><style>text{font-family:Arial,"Noto Sans CJK SC",sans-serif;fill:#222}.grid{stroke:#e3e5e7}</style><text x="24" y="30" font-size="19" font-weight="bold">Step-100 结构现象总览（n=29）</text><text x="24" y="51" font-size="12">每根柱子直接来自 question_index 对齐后的 cases_diagnostics.json；不是 JSONL 行号统计。</text><line class="grid" x1="80" y1="250.0" x2="930" y2="250.0"/><text x="70" y="254.0" text-anchor="end" font-size="11">0</text><line class="grid" x1="80" y1="207.5" x2="930" y2="207.5"/><text x="70" y="211.5" text-anchor="end" font-size="11">5</text><line class="grid" x1="80" y1="165.0" x2="930" y2="165.0"/><text x="70" y="169.0" text-anchor="end" font-size="11">10</text><line class="grid" x1="80" y1="122.5" x2="930" y2="122.5"/><text x="70" y="126.5" text-anchor="end" font-size="11">15</text><line class="grid" x1="80" y1="80.0" x2="930" y2="80.0"/><text x="70" y="84.0" text-anchor="end" font-size="11">20</text><rect x="120" y="173.5" width="130" height="76.5" rx="3" fill="#167c80" opacity=".88"><title>成功 case: 9</title></rect><text x="185" y="165.5" text-anchor="middle" font-size="19" font-weight="bold">9</text><text x="185" y="275" text-anchor="middle" font-size="11">成功 case</text><rect x="325" y="80.0" width="130" height="170.0" rx="3" fill="#b24c3f" opacity=".88"><title>失败 case: 20</title></rect><text x="390" y="72.0" text-anchor="middle" font-size="19" font-weight="bold">20</text><text x="390" y="275" text-anchor="middle" font-size="11">失败 case</text><rect x="530" y="224.5" width="130" height="25.5" rx="3" fill="#b47718" opacity=".88"><title>成功后冗余候选: 3</title></rect><text x="595" y="216.5" text-anchor="middle" font-size="19" font-weight="bold">3</text><text x="595" y="275" text-anchor="middle" font-size="11">成功后冗余候选</text><rect x="735" y="216.0" width="130" height="34.0" rx="3" fill="#70469b" opacity=".88"><title>失败但词面覆盖100%: 4</title></rect><text x="800" y="208.0" text-anchor="middle" font-size="19" font-weight="bold">4</text><text x="800" y="275" text-anchor="middle" font-size="11">失败但词面覆盖100%</text><text x="24" y="315" font-size="11">“冗余候选”是答案词出现后继续工具调用且重复 action/docid 的行为诊断，不等于已证明 reward hacking。</text></svg>